<?xml version="1.0" encoding="UTF-8"?>
<!DOCTYPE svg PUBLIC "-//W3C//DTD SVG 1.1//EN" "http://www.w3.org/Graphics/SVG/1.1/DTD/svg11.dtd">
<svg xmlns="http://www.w3.org/2000/svg" version="1.1" width="748px" height="873px" style="shape-rendering:geometricPrecision; text-rendering:geometricPrecision; image-rendering:optimizeQuality; fill-rule:evenodd; clip-rule:evenodd" xmlns:xlink="http://www.w3.org/1999/xlink">
<g><path style="opacity:1" fill="#39b44a" d="M 88.5,-0.5 C 91.1667,-0.5 93.8333,-0.5 96.5,-0.5C 102.698,3.7626 109.031,7.7626 115.5,11.5C 115.833,12.5 116.5,13.1667 117.5,13.5C 122.28,15.0557 126.613,17.3891 130.5,20.5C 130.5,21.5 130.5,22.5 130.5,23.5C 132.167,23.5 133.833,23.5 135.5,23.5C 181.687,51.0931 228.02,78.4264 274.5,105.5C 274.833,106.5 275.5,107.167 276.5,107.5C 295.907,118.955 315.407,130.288 335,141.5C 348.644,131.595 361.811,121.095 374.5,110C 376.078,108.906 377.745,108.072 379.5,107.5C 380.167,107.5 380.833,107.5 381.5,107.5C 381.829,213.522 381.496,319.522 380.5,425.5C 378.667,430.154 375.834,430.82 372,427.5C 350.068,414.117 327.902,401.117 305.5,388.5C 305.167,387.5 304.5,386.833 303.5,386.5C 237.792,348.805 172.126,310.805 106.5,272.5C 106.167,271.5 105.5,270.833 104.5,270.5C 100.19,269.012 96.1899,267.012 92.5,264.5C 92.5,263.833 92.1667,263.5 91.5,263.5C 61.1701,244.999 30.5034,226.999 -0.5,209.5C -0.5,157.167 -0.5,104.833 -0.5,52.5C 21.9504,39.1272 44.6171,26.1272 67.5,13.5C 68.5,13.1667 69.1667,12.5 69.5,11.5C 76.0384,7.73607 82.3717,3.73607 88.5,-0.5 Z"/></g>
<g><path style="opacity:0.025" fill="#491e5f" d="M 69.5,11.5 C 69.1667,12.5 68.5,13.1667 67.5,13.5C 67.5,12.1667 68.1667,11.5 69.5,11.5 Z"/></g>
<g><path style="opacity:0.004" fill="#471c5c" d="M 115.5,11.5 C 116.833,11.5 117.5,12.1667 117.5,13.5C 116.5,13.1667 115.833,12.5 115.5,11.5 Z"/></g>
<g><path style="opacity:0.967" fill="#4a6a4e" d="M 130.5,20.5 C 132.368,21.2632 134.035,22.2632 135.5,23.5C 133.833,23.5 132.167,23.5 130.5,23.5C 130.5,22.5 130.5,21.5 130.5,20.5 Z"/></g>
<g><path style="opacity:0.004" fill="#6c2790" d="M 274.5,105.5 C 275.833,105.5 276.5,106.167 276.5,107.5C 275.5,107.167 274.833,106.5 274.5,105.5 Z"/></g>
<g><path style="opacity:0.196" fill="#2b0d3c" d="M 381.5,107.5 C 380.833,107.5 380.167,107.5 379.5,107.5C 380.167,104.833 380.833,104.833 381.5,107.5 Z"/></g>
<g><path style="opacity:1" fill="#19579c" d="M -0.5,209.5 C 30.5034,226.999 61.1701,244.999 91.5,263.5C 92.1667,263.5 92.5,263.833 92.5,264.5C 93.1098,265.391 93.4431,266.391 93.5,267.5C 94.0431,267.56 94.3764,267.893 94.5,268.5C 93.675,269.386 92.675,269.719 91.5,269.5C 91.5,470.5 91.5,671.5 91.5,872.5C 90.8333,872.5 90.1667,872.5 89.5,872.5C 59.5448,854.852 29.5448,837.185 -0.5,819.5C -0.5,616.167 -0.5,412.833 -0.5,209.5 Z M 93.5,267.5 C 92.9232,268.773 92.2565,268.773 91.5,267.5C 91.9698,266.537 92.6365,266.537 93.5,267.5 Z"/></g>
<g><path style="opacity:1" fill="#19579c" d="M 497.5,232.5 C 536.146,254.999 574.812,277.666 613.5,300.5C 613.721,301.735 614.388,302.735 615.5,303.5C 623.577,307.691 631.244,312.525 638.5,318C 644.298,320.323 649.965,322.823 655.5,325.5C 686.122,343.148 716.789,360.814 747.5,378.5C 747.5,380.5 747.5,382.5 747.5,384.5C 746.167,407.5 746.167,430.5 747.5,453.5C 747.5,456.5 747.5,459.5 747.5,462.5C 745.799,468.919 745.133,475.585 745.5,482.5C 744.167,482.833 744.167,483.167 745.5,483.5C 745.5,485.167 745.5,486.833 745.5,488.5C 743.821,488.285 742.821,488.952 742.5,490.5C 655.638,541.763 568.638,592.763 481.5,643.5C 480.01,626.8 480.343,610.133 482.5,593.5C 482.167,471.165 482.5,348.832 483.5,226.5C 487.961,228.564 492.294,230.898 496.5,233.5C 497.107,233.376 497.44,233.043 497.5,232.5 Z"/></g>
<g><path style="opacity:0.004" fill="#3e294e" d="M 104.5,270.5 C 105.5,270.833 106.167,271.5 106.5,272.5C 105.167,272.5 104.5,271.833 104.5,270.5 Z"/></g>
<g><path style="opacity:0.922" fill="#292860" d="M 613.5,300.5 C 627.523,308.843 641.523,317.176 655.5,325.5C 649.965,322.823 644.298,320.323 638.5,318C 631.244,312.525 623.577,307.691 615.5,303.5C 614.388,302.735 613.721,301.735 613.5,300.5 Z"/></g>
<g><path style="opacity:0.004" fill="#321144" d="M 303.5,386.5 C 304.5,386.833 305.167,387.5 305.5,388.5C 304.167,388.5 303.5,387.833 303.5,386.5 Z"/></g>
<g><path style="opacity:1" fill="#8cc53f" d="M 448.5,583.5 C 449.048,586.084 450.715,587.084 453.5,586.5C 462.095,591.469 470.761,596.469 479.5,601.5C 480.48,598.914 480.813,596.247 480.5,593.5C 481.167,593.5 481.833,593.5 482.5,593.5C 480.343,610.133 480.01,626.8 481.5,643.5C 386.3,698.929 291.3,754.596 196.5,810.5C 195.833,810.5 195.167,810.5 194.5,810.5C 194.5,686.167 194.5,561.833 194.5,437.5C 199.11,437.74 203.443,439.073 207.5,441.5C 287.829,489.152 368.162,536.486 448.5,583.5 Z"/></g>
<g><path style="opacity:0.471" fill="#260a39" d="M 747.5,462.5 C 747.5,470.833 747.5,479.167 747.5,487.5C 746.151,488.953 744.485,489.953 742.5,490.5C 742.821,488.952 743.821,488.285 745.5,488.5C 745.5,486.833 745.5,485.167 745.5,483.5C 745.5,483.167 745.5,482.833 745.5,482.5C 745.133,475.585 745.799,468.919 747.5,462.5 Z"/></g>
<g><path style="opacity:1" fill="#174681" d="M 497.5,232.5 C 497.44,233.043 497.107,233.376 496.5,233.5C 492.294,230.898 487.961,228.564 483.5,226.5C 482.5,348.832 482.167,471.165 482.5,593.5C 481.833,593.5 481.167,593.5 480.5,593.5C 480.333,469.833 480.5,346.166 481,222.5C 486.651,225.665 492.151,228.998 497.5,232.5 Z"/></g>
<g><path style="opacity:0.922" fill="#737751" d="M 448.5,583.5 C 450.368,584.263 452.035,585.263 453.5,586.5C 450.715,587.084 449.048,586.084 448.5,583.5 Z"/></g>
<g><path style="opacity:0.037" fill="#14031c" d="M 194.5,810.5 C 195.167,810.5 195.833,810.5 196.5,810.5C 197.519,812.54 197.519,814.54 196.5,816.5C 194.717,814.977 194.051,812.977 194.5,810.5 Z"/></g>
</svg>
